<svg width="160" height="43" viewBox="0 0 160 43" fill="none" xmlns="http://www.w3.org/2000/svg">
<path d="M58.856 16.2016H53.288V13.6576H67.568V16.2016H61.976V30.7456H58.856V16.2016ZM74.1209 18.3376C74.5849 18.3376 74.9849 18.4016 75.3209 18.5296L75.2969 21.2656C74.7849 21.0576 74.2569 20.9536 73.7129 20.9536C72.6889 20.9536 71.9049 21.2496 71.3609 21.8416C70.8329 22.4336 70.5689 23.2176 70.5689 24.1936V30.7456H67.5929V22.0576C67.5929 20.7776 67.5289 19.6336 67.4009 18.6256H70.2089L70.4489 20.7616C70.7529 19.9776 71.2329 19.3776 71.8889 18.9616C72.5449 18.5456 73.2889 18.3376 74.1209 18.3376ZM88.349 18.6256V30.7456H85.397V28.8016C85.029 29.4736 84.501 30.0016 83.813 30.3856C83.125 30.7536 82.341 30.9376 81.461 30.9376C80.405 30.9376 79.469 30.6816 78.653 30.1696C77.837 29.6576 77.205 28.9296 76.757 27.9856C76.309 27.0416 76.085 25.9456 76.085 24.6976C76.085 23.4496 76.309 22.3456 76.757 21.3856C77.221 20.4096 77.861 19.6576 78.677 19.1296C79.493 18.5856 80.421 18.3136 81.461 18.3136C82.341 18.3136 83.125 18.5056 83.813 18.8896C84.501 19.2576 85.029 19.7776 85.397 20.4496V18.6256H88.349ZM82.277 28.5856C83.269 28.5856 84.037 28.2416 84.581 27.5536C85.125 26.8656 85.397 25.8976 85.397 24.6496C85.397 23.3696 85.125 22.3856 84.581 21.6976C84.037 21.0096 83.261 20.6656 82.253 20.6656C81.261 20.6656 80.485 21.0256 79.925 21.7456C79.381 22.4496 79.109 23.4336 79.109 24.6976C79.109 25.9456 79.381 26.9056 79.925 27.5776C80.485 28.2496 81.269 28.5856 82.277 28.5856ZM97.3524 15.4576C96.0564 15.4576 95.4084 16.1696 95.4084 17.5936V18.6256H98.1204V20.8816H95.4084V30.7456H92.4084V20.8816H90.1044V18.6256H92.4084V17.4496C92.4084 16.0096 92.7684 14.9056 93.4884 14.1376C94.2244 13.3536 95.2724 12.9616 96.6324 12.9616C97.3844 12.9616 98.0164 13.0576 98.5284 13.2496V15.6256C98.0804 15.5136 97.6884 15.4576 97.3524 15.4576ZM111.904 18.6256V30.7456H108.952V28.8016C108.584 29.4736 108.056 30.0016 107.368 30.3856C106.68 30.7536 105.896 30.9376 105.016 30.9376C103.96 30.9376 103.024 30.6816 102.208 30.1696C101.392 29.6576 100.76 28.9296 100.312 27.9856C99.8637 27.0416 99.6397 25.9456 99.6397 24.6976C99.6397 23.4496 99.8637 22.3456 100.312 21.3856C100.776 20.4096 101.416 19.6576 102.232 19.1296C103.048 18.5856 103.976 18.3136 105.016 18.3136C105.896 18.3136 106.68 18.5056 107.368 18.8896C108.056 19.2576 108.584 19.7776 108.952 20.4496V18.6256H111.904ZM105.832 28.5856C106.824 28.5856 107.592 28.2416 108.136 27.5536C108.68 26.8656 108.952 25.8976 108.952 24.6496C108.952 23.3696 108.68 22.3856 108.136 21.6976C107.592 21.0096 106.816 20.6656 105.808 20.6656C104.816 20.6656 104.04 21.0256 103.48 21.7456C102.936 22.4496 102.664 23.4336 102.664 24.6976C102.664 25.9456 102.936 26.9056 103.48 27.5776C104.04 28.2496 104.824 28.5856 105.832 28.5856ZM115.171 13.0816H118.147V30.7456H115.171V13.0816ZM133.141 18.6256V30.3616C133.141 32.2496 132.621 33.6816 131.581 34.6576C130.541 35.6336 129.013 36.1216 126.997 36.1216C125.125 36.1216 123.477 35.7296 122.053 34.9456L122.533 32.6656C124.005 33.4336 125.469 33.8176 126.925 33.8176C129.085 33.8176 130.165 32.7456 130.165 30.6016V28.2016C129.797 28.8576 129.261 29.3936 128.557 29.8096C127.853 30.2096 127.061 30.4096 126.181 30.4096C125.125 30.4096 124.181 30.1616 123.349 29.6656C122.533 29.1536 121.893 28.4416 121.429 27.5296C120.981 26.6016 120.757 25.5456 120.757 24.3616C120.757 23.1776 120.981 22.1296 121.429 21.2176C121.893 20.2896 122.533 19.5776 123.349 19.0816C124.181 18.5696 125.125 18.3136 126.181 18.3136C127.077 18.3136 127.869 18.5056 128.557 18.8896C129.261 19.2576 129.797 19.7776 130.165 20.4496V18.6256H133.141ZM126.973 28.0576C127.965 28.0576 128.741 27.7296 129.301 27.0736C129.877 26.4176 130.165 25.5136 130.165 24.3616C130.165 23.2096 129.885 22.3056 129.325 21.6496C128.765 20.9936 127.981 20.6656 126.973 20.6656C125.981 20.6656 125.197 20.9936 124.621 21.6496C124.061 22.3056 123.781 23.2096 123.781 24.3616C123.781 25.5136 124.061 26.4176 124.621 27.0736C125.197 27.7296 125.981 28.0576 126.973 28.0576ZM147.974 18.6256V30.7456H145.022V28.8016C144.654 29.4736 144.126 30.0016 143.438 30.3856C142.75 30.7536 141.966 30.9376 141.086 30.9376C140.03 30.9376 139.094 30.6816 138.278 30.1696C137.462 29.6576 136.83 28.9296 136.382 27.9856C135.934 27.0416 135.71 25.9456 135.71 24.6976C135.71 23.4496 135.934 22.3456 136.382 21.3856C136.846 20.4096 137.486 19.6576 138.302 19.1296C139.118 18.5856 140.046 18.3136 141.086 18.3136C141.966 18.3136 142.75 18.5056 143.438 18.8896C144.126 19.2576 144.654 19.7776 145.022 20.4496V18.6256H147.974ZM141.902 28.5856C142.894 28.5856 143.662 28.2416 144.206 27.5536C144.75 26.8656 145.022 25.8976 145.022 24.6496C145.022 23.3696 144.75 22.3856 144.206 21.6976C143.662 21.0096 142.886 20.6656 141.878 20.6656C140.886 20.6656 140.11 21.0256 139.55 21.7456C139.006 22.4496 138.734 23.4336 138.734 24.6976C138.734 25.9456 139.006 26.9056 139.55 27.5776C140.11 28.2496 140.894 28.5856 141.902 28.5856ZM157.769 18.3376C158.233 18.3376 158.633 18.4016 158.969 18.5296L158.945 21.2656C158.433 21.0576 157.905 20.9536 157.361 20.9536C156.337 20.9536 155.553 21.2496 155.009 21.8416C154.481 22.4336 154.217 23.2176 154.217 24.1936V30.7456H151.241V22.0576C151.241 20.7776 151.177 19.6336 151.049 18.6256H153.857L154.097 20.7616C154.401 19.9776 154.881 19.3776 155.537 18.9616C156.193 18.5456 156.937 18.3376 157.769 18.3376Z" fill="white"/>
<ellipse cx="20.5" cy="21.7446" rx="20.5" ry="21.2055" fill="white"/>
<path d="M19.344 15.9554H13.312V13.1994H28.782V15.9554H22.724V31.7114H19.344V15.9554Z" fill="#5B9BF3"/>
</svg>
